<svg width="485" height="180" viewBox="0 0 485 180" fill="none" xmlns="http://www.w3.org/2000/svg">
<path d="M189.792 8.94482L204.077 15.9743C194.402 31.6963 182.913 45.6797 169.61 57.9247C156.458 70.1697 138.922 82.339 117.002 94.4328C121.235 116.353 126.45 133.889 132.648 147.041C138.846 160.344 146.934 167.751 156.912 169.263V179.694C155.702 179.845 154.115 179.921 152.15 179.921C142.021 179.921 132.195 172.891 122.671 158.832C113.298 144.773 104.833 123.987 97.274 96.4737C90.7736 116.882 80.8718 133.057 67.5687 145C54.2655 156.791 40.4332 162.687 26.0718 162.687C18.6644 162.687 12.5419 160.646 7.70439 156.565C3.01805 152.634 0.674873 147.192 0.674873 140.238C0.674873 133.133 3.84949 125.801 10.1987 118.242C16.548 110.684 25.2404 104.335 36.276 99.1948L41.4914 107.358C27.8859 117.033 21.0832 126.103 21.0832 134.569C21.0832 138.651 22.4437 141.977 25.1648 144.546C27.8859 146.965 31.4385 148.175 35.8225 148.175C46.1022 148.175 54.9458 143.866 62.3532 135.249C69.9118 126.481 76.639 111.213 82.5347 89.4441C89.9422 62.0819 97.5008 44.168 105.211 35.7023C108.688 31.7719 113.752 27.4634 120.403 22.7771C109.973 23.0794 99.3149 24.8935 88.4305 28.2193C77.546 31.3939 68.0222 36.2314 59.8589 42.7319C51.6956 49.0811 47.6139 56.1862 47.6139 64.0472C47.6139 74.1757 52.2247 82.2634 61.4462 88.3103L56.911 95.3399C48.4454 91.2582 41.7938 85.9672 36.9563 79.4668C32.1187 72.9663 29.7 66.2392 29.7 59.2852C29.7 49.7614 34.9154 40.7666 45.3463 32.301C55.7772 23.8353 68.5513 17.2593 83.6685 12.573C98.9369 7.88662 113.903 5.54345 128.567 5.54345C137.637 5.54345 142.172 7.50868 142.172 11.4392C142.172 14.0091 139.527 17.2593 134.236 21.1898C124.561 28.4461 117.078 37.8943 111.787 49.5346C106.647 61.1749 102.414 74.7804 99.0881 90.3512C116.322 84.0019 132.8 73.4954 148.521 58.8317C164.395 44.0168 178.151 27.3879 189.792 8.94482ZM293.165 120.057L299.288 123.911C297.322 130.412 293.997 135.627 289.31 139.558C284.775 143.337 279.786 145.227 274.344 145.227C268.902 145.227 262.704 141.75 255.75 134.796C247.738 141.75 237.231 145.227 224.231 145.227C211.23 145.227 201.177 142.128 194.072 135.93C186.967 129.732 183.414 122.173 183.414 113.254C183.414 104.183 187.118 96.2469 194.525 89.4441C201.933 82.4902 212.363 77.3503 225.818 74.0245C222.946 65.8612 221.509 59.2097 221.509 54.0698C221.509 46.0576 224.684 39.4061 231.033 34.115C237.534 28.6728 245.092 25.9517 253.709 25.9517C262.326 25.9517 269.129 27.917 274.117 31.8474C279.257 35.6268 281.827 40.6154 281.827 46.8135C281.827 59.9655 269.053 69.7917 243.505 76.2921C250.912 94.4328 257.262 107.434 262.553 115.295C266.03 110.306 270.036 101.009 274.571 87.4033H281.827C281.223 91.7873 279.484 97.4563 276.612 104.41C273.891 111.213 270.943 116.806 267.768 121.19C272.908 127.691 277.368 130.941 281.147 130.941C286.287 130.941 290.293 127.313 293.165 120.057ZM267.541 46.8135C267.541 42.5807 266.256 39.2549 263.687 36.8361C261.117 34.2662 257.564 32.9812 253.029 32.9812C248.645 32.9812 244.866 34.7953 241.691 38.4234C238.516 41.9004 236.929 45.8309 236.929 50.2149C236.929 54.5989 238.214 60.9481 240.784 69.2626C258.622 64.5763 267.541 57.0932 267.541 46.8135ZM203.595 107.585C203.595 113.934 205.863 119.83 210.398 125.272C215.085 130.714 222.114 133.435 231.487 133.435C240.859 133.435 247.511 131.697 251.442 128.22C243.429 115.975 235.568 100.177 227.859 80.8273C220.905 82.339 215.085 85.5892 210.398 90.5779C205.863 95.5666 203.595 101.236 203.595 107.585ZM484.496 168.356L481.775 176.746C477.845 177.049 474.897 177.2 472.932 177.2C463.861 177.2 456.454 173.345 450.709 165.635C445.116 158.076 442.319 148.175 442.319 135.93C442.319 128.522 443.982 114.539 447.308 93.9793C450.785 73.2687 454.791 54.3721 459.326 37.2896C460.233 33.5103 460.687 31.016 460.687 29.8066C460.687 28.5972 460.158 27.9925 459.099 27.9925C458.041 27.9925 454.64 33.6615 448.895 44.9994C443.302 56.1862 436.575 70.0185 428.714 86.4963C420.853 102.823 416.318 112.196 415.108 114.614C414.05 116.882 413.143 118.772 412.387 120.283C411.782 121.644 410.422 124.214 408.305 127.993C406.34 131.621 404.451 134.871 402.636 137.744C397.648 145.302 393.717 149.082 390.845 149.082C388.88 149.082 386.688 148.553 384.269 147.494C382.001 146.436 380.49 145.302 379.734 144.093C378.071 141.523 377.239 133.511 377.239 120.057C377.239 91.9385 379.507 65.1054 384.042 39.5572C385.554 31.0916 386.31 26.632 386.31 26.1785C386.31 24.6667 385.705 23.9109 384.496 23.9109C382.077 23.9109 378.222 31.4695 372.931 46.5868L366.355 65.4077C356.68 92.7699 346.854 114.085 336.876 129.354C327.05 144.622 315.712 155.355 302.863 161.553L296.967 149.082C311.631 138.197 322.893 127.086 330.754 115.748C338.766 104.41 347.458 86.1183 356.831 60.8725L364.541 40.2375C369.832 25.8761 374.443 15.672 378.373 9.6251C382.304 3.42703 386.688 0.327997 391.525 0.327997C399.537 0.327997 403.543 5.16552 403.543 14.8406C403.543 15.5964 402.107 30.9404 399.235 60.8725C396.363 90.6535 394.927 110.306 394.927 119.83C394.927 122.551 395.38 123.987 396.287 124.138C397.043 124.138 397.875 123.382 398.782 121.871C411.027 101.462 422.742 79.24 433.929 55.2036C435.29 52.1801 437.633 46.9647 440.959 39.5572C444.284 32.1498 447.535 25.5738 450.709 19.8292C453.884 14.0847 456.303 10.6077 457.966 9.39833C459.628 8.03778 462.274 7.3575 465.902 7.3575C469.53 7.3575 472.629 8.71806 475.199 11.4392C477.92 14.0091 479.281 17.1081 479.281 20.7363C479.281 24.3644 478.752 28.5216 477.694 33.208C465.902 90.8047 460.006 125.272 460.006 136.61C460.006 147.797 461.82 155.431 465.449 159.513C469.077 163.745 475.426 166.693 484.496 168.356Z" fill="url(#paint0_linear_2_3)"/>
<defs>
<linearGradient id="paint0_linear_2_3" x1="284.5" y1="22" x2="293.5" y2="145" gradientUnits="userSpaceOnUse">
<stop stop-color="#EBD197"/>
<stop offset="0.25359" stop-color="#B48811"/>
<stop offset="0.553223" stop-color="#A2790D"/>
<stop offset="1" stop-color="#BB9B49"/>
</linearGradient>
</defs>
</svg>
